<svg width="28" height="23" viewBox="0 0 82 77" fill="none" xmlns="http://www.w3.org/2000/svg">
<path d="M80.8442 74.6001L80.8167 74.5563L66.8511 60.9122L73.4916 38.7267L73.5111 38.6615V38.0872L66.7149 15.2452C66.7053 15.182 66.6847 15.1213 66.6541 15.0664V15.0095L66.4702 14.8106C66.4194 14.6985 66.3305 14.6119 66.2222 14.5688L48.3323 0.458228L48.2265 0.375H25.6144C25.4823 0.375 25.4524 0.397778 25.1687 0.61417C25.0333 0.717986 24.836 0.870862 24.5851 1.06491C24.1114 1.43199 23.4169 1.9721 22.5217 2.66946C21.0138 3.84428 18.9151 5.48211 16.2811 7.5374C11.8 11.0373 7.26625 14.5824 7.22087 14.6179L7.19493 14.638L6.8517 15.0091V15.2684L0.0194512 38.0211L0 38.0868V38.6637L6.85697 61.4816V61.4865C6.85486 61.5634 6.86717 61.6401 6.89314 61.7118C6.91911 61.7836 6.95822 61.8489 7.00812 61.9039L7.2002 62.1115L25.0435 76.0644C25.0785 76.1316 25.1285 76.1883 25.1888 76.2295C25.2491 76.2707 25.318 76.2951 25.3891 76.3005C25.4707 76.3491 25.5623 76.3747 25.6554 76.375H48.0891L48.1702 76.2874C48.2194 76.2755 48.2665 76.2551 48.3096 76.2269H48.3254L65.682 62.6302L79.4194 76.1091C79.5097 76.2029 79.6184 76.2733 79.7375 76.315C79.9752 76.3936 80.2292 76.3936 80.4669 76.315C80.6255 76.2547 80.7579 76.1334 80.8389 75.9742C80.9796 75.7896 81.0536 75.5562 81.0472 75.3171C81.0477 75.0615 80.9769 74.8116 80.8442 74.6001ZM65.4579 37.3544L66.3863 21.1131L71.2017 37.3544H65.4579ZM71.2017 39.3956L66.3859 55.6369L65.4579 39.3956H71.2017ZM17.5722 57.8021L23.3476 72.2373L9.69117 61.5083L17.5722 57.8021ZM38.5333 16.9767L47.63 3.50874L53.8613 19.0644L38.5333 16.9767ZM55.9389 18.9479L50.1635 4.51229L63.8199 15.2412L55.9389 18.9479ZM56.8325 20.828L64.6579 17.1195L63.6797 34.3862L63.6724 34.5746L56.8325 20.828ZM9.83868 34.5746L9.83179 34.3945L8.85315 17.1217L13.4773 19.3286L16.6786 20.8297L9.83868 34.5746ZM45.913 2.48942L36.7884 15.9964L27.6029 2.48942H45.913ZM62.8652 39.3956L55.5523 54.0647L51.5458 44.7976L49.2915 39.3956H62.8668H62.8652ZM49.2967 37.3544L55.5548 22.6901L62.8652 37.3544H49.2967ZM38.5605 19.103L54.0501 21.1955L47.679 36.1143L38.5605 19.103ZM40.4622 54.1484L47.6798 40.637L54.0501 55.5541L38.5653 57.6461L40.4622 54.1484ZM27.4376 37.3544L36.7868 19.8766L19.6498 19.0662L46.0751 37.3544H27.4376ZM19.6498 19.0662L36.7884 56.8765L32.1132 48.1367L27.4376 39.3956L19.6498 19.0662ZM33.2499 22.3121L25.8989 36.1116L19.5286 21.1955L34.9543 19.103L33.2499 22.3121ZM34.9519 57.6483L19.5262 55.5558L24.3209 44.2811L25.8949 40.6362L34.9519 57.6483ZM10.7136 37.3544L18.0232 22.6932L22.0326 32.1719L24.278 37.3544H10.7136ZM24.282 39.3956L18.0248 54.0599L10.7136 39.3956H24.282ZM63.6777 42.164V42.2079L64.6567 59.627L60.0322 57.4201L56.8308 55.919L63.6777 42.164ZM9.69117 15.2412L23.3476 4.51229L17.5722 18.9479L9.69117 15.2412ZM16.6786 55.922L8.85275 59.6305L9.83139 42.2157L9.83341 42.1645L16.6786 55.922ZM36.7888 60.7532L45.913 74.2606H27.6029L36.7888 60.7532ZM63.8203 61.5083L50.1639 72.2373L55.9389 57.8021L63.8203 61.5083ZM19.6498 19.0662L25.8811 3.51093L34.9778 16.9767L19.6498 19.0662ZM2.30983 37.3544L7.12483 21.1131L8.05322 37.3544H2.30983ZM8.05403 39.3956L7.12564 55.6369L2.30983 39.3956H8.05403ZM34.9778 59.7733L25.8811 73.2391L19.6502 57.6834L34.9778 59.7733ZM53.8617 57.6856L47.6304 73.2413L38.5329 59.7733L53.8617 57.6856Z" fill="#E5E0F3"/>
</svg>